<svg width="28" height="29" viewBox="0 0 28 29" fill="none" xmlns="http://www.w3.org/2000/svg">
<g clip-path="url(#clip0_885_798)">
<path d="M13.9993 21.5L11.666 16.8333L3.49935 12.75C3.38765 12.6988 3.293 12.6166 3.22664 12.5132C3.16028 12.4098 3.125 12.2895 3.125 12.1667C3.125 12.0438 3.16028 11.9235 3.22664 11.8201C3.293 11.7167 3.38765 11.6345 3.49935 11.5833L24.4993 4L21.1149 13.373" stroke="#00AAF1" stroke-width="2" stroke-linecap="round" stroke-linejoin="round"/>
<path d="M24.6405 23.9745C25.1301 23.4851 25.4636 22.8614 25.5987 22.1825C25.7338 21.5035 25.6646 20.7997 25.3997 20.1601C25.1348 19.5205 24.6862 18.9738 24.1106 18.5892C23.535 18.2046 22.8583 17.9993 22.166 17.9993C21.4737 17.9993 20.797 18.2046 20.2214 18.5892C19.6458 18.9738 19.1972 19.5205 18.9323 20.1601C18.6675 20.7997 18.5982 21.5035 18.7333 22.1825C18.8685 22.8614 19.2019 23.4851 19.6915 23.9745C20.1792 24.4633 21.004 25.1937 22.166 26.1667C23.3922 25.1283 24.2182 24.398 24.6405 23.9745Z" stroke="#00AAF1" stroke-width="2" stroke-linecap="round" stroke-linejoin="round"/>
<path d="M22.166 21.5V21.5117" stroke="#00AAF1" stroke-width="2" stroke-linecap="round" stroke-linejoin="round"/>
</g>
<defs>
<clipPath id="clip0_885_798">
<rect width="28" height="28" fill="white" transform="translate(0 0.5)"/>
</clipPath>
</defs>
</svg>
