<svg width="17" height="17" viewBox="0 0 17 17" fill="none" xmlns="http://www.w3.org/2000/svg">
<path d="M6.02083 13.4582V15.0165C6.02083 15.2149 6.02083 15.314 5.98223 15.3898C5.94828 15.4564 5.8941 15.5106 5.82746 15.5446C5.75169 15.5832 5.65252 15.5832 5.45417 15.5832H4.10833C3.90998 15.5832 3.81081 15.5832 3.73505 15.5446C3.6684 15.5106 3.61422 15.4564 3.58027 15.3898C3.54167 15.314 3.54167 15.2149 3.54167 15.0165V13.4582M13.4583 13.4582V15.0165C13.4583 15.2149 13.4583 15.314 13.4197 15.3898C13.3858 15.4564 13.3316 15.5106 13.265 15.5446C13.1892 15.5832 13.09 15.5832 12.8917 15.5832H11.5458C11.3475 15.5832 11.2483 15.5832 11.1725 15.5446C11.1059 15.5106 11.0517 15.4564 11.0178 15.3898C10.9792 15.314 10.9792 15.2149 10.9792 15.0165V13.4582M2.125 8.49984H14.875M2.125 3.89567H14.875M4.60417 10.979H5.66667M11.3333 10.979H12.3958M5.525 13.4582H11.475C12.6651 13.4582 13.2602 13.4582 13.7147 13.2266C14.1146 13.0228 14.4397 12.6977 14.6434 12.2979C14.875 11.8433 14.875 11.2483 14.875 10.0582V4.8165C14.875 3.62639 14.875 3.03134 14.6434 2.57677C14.4397 2.17693 14.1146 1.85185 13.7147 1.64812C13.2602 1.4165 12.6651 1.4165 11.475 1.4165H5.525C4.33489 1.4165 3.73983 1.4165 3.28527 1.64812C2.88543 1.85185 2.56034 2.17693 2.35661 2.57677C2.125 3.03134 2.125 3.62639 2.125 4.8165V10.0582C2.125 11.2483 2.125 11.8433 2.35661 12.2979C2.56034 12.6977 2.88543 13.0228 3.28527 13.2266C3.73983 13.4582 4.33489 13.4582 5.525 13.4582Z" stroke="white" stroke-width="1.3" stroke-linecap="round" stroke-linejoin="round"/>
</svg>
