<svg width="28" height="29" viewBox="0 0 28 29" fill="none" xmlns="http://www.w3.org/2000/svg">
<g clip-path="url(#clip0_885_832)">
<path d="M4.66602 8.66671C4.66602 8.04787 4.91185 7.45438 5.34943 7.01679C5.78702 6.57921 6.38051 6.33337 6.99935 6.33337H20.9993C21.6182 6.33337 22.2117 6.57921 22.6493 7.01679C23.0868 7.45438 23.3327 8.04787 23.3327 8.66671V22.6667C23.3327 23.2855 23.0868 23.879 22.6493 24.3166C22.2117 24.7542 21.6182 25 20.9993 25H6.99935C6.38051 25 5.78702 24.7542 5.34943 24.3166C4.91185 23.879 4.66602 23.2855 4.66602 22.6667V8.66671Z" stroke="#00AAF1" stroke-width="2" stroke-linecap="round" stroke-linejoin="round"/>
<path d="M18.666 4V8.66667" stroke="#00AAF1" stroke-width="2" stroke-linecap="round" stroke-linejoin="round"/>
<path d="M9.33398 4V8.66667" stroke="#00AAF1" stroke-width="2" stroke-linecap="round" stroke-linejoin="round"/>
<path d="M4.66602 13.3334H23.3327" stroke="#00AAF1" stroke-width="2" stroke-linecap="round" stroke-linejoin="round"/>
<path d="M8.16602 16.8334H8.18118" stroke="#00AAF1" stroke-width="2" stroke-linecap="round" stroke-linejoin="round"/>
<path d="M11.6777 16.8334H11.6827" stroke="#00AAF1" stroke-width="2" stroke-linecap="round" stroke-linejoin="round"/>
<path d="M15.1777 16.8334H15.1827" stroke="#00AAF1" stroke-width="2" stroke-linecap="round" stroke-linejoin="round"/>
<path d="M18.6836 16.8334H18.6886" stroke="#00AAF1" stroke-width="2" stroke-linecap="round" stroke-linejoin="round"/>
<path d="M15.1836 20.3334H15.1886" stroke="#00AAF1" stroke-width="2" stroke-linecap="round" stroke-linejoin="round"/>
<path d="M8.17773 20.3334H8.18273" stroke="#00AAF1" stroke-width="2" stroke-linecap="round" stroke-linejoin="round"/>
<path d="M11.6777 20.3334H11.6827" stroke="#00AAF1" stroke-width="2" stroke-linecap="round" stroke-linejoin="round"/>
</g>
<defs>
<clipPath id="clip0_885_832">
<rect width="28" height="28" fill="white" transform="translate(0 0.5)"/>
</clipPath>
</defs>
</svg>
