<svg width="14" height="29" viewBox="0 0 14 29" fill="none" xmlns="http://www.w3.org/2000/svg">
<path fill-rule="evenodd" clip-rule="evenodd" d="M6.25717 4.36291C5.84619 6.76392 5.5075 8.73103 5.50453 8.73425C5.50049 8.73865 0.792701 7.70374 0.679207 7.67351C0.667332 7.67035 1.41297 8.48705 2.33618 9.48841L4.01474 11.309L2.33628 13.1258C1.41311 14.1251 0.665044 14.9426 0.673906 14.9425C0.682758 14.9424 1.77324 14.7026 3.0972 14.4097C4.42116 14.1167 5.50518 13.8779 5.50612 13.879C5.50707 13.88 5.84565 17.28 6.25436 21.44C6.66307 25.6 7.00025 29 7.00025 29C7.00025 29 7.34374 25.5875 7.75181 21.4322C8.15988 17.2768 8.49127 13.8806 8.49243 13.8794C8.49357 13.8782 9.57762 14.117 10.9014 14.4099C12.2252 14.7029 13.3152 14.9426 13.3236 14.9426C13.332 14.9426 12.5841 14.125 11.6615 13.1257L9.98417 11.3087L11.6627 9.48787C12.5859 8.4864 13.334 7.66926 13.3251 7.672C13.2603 7.69194 8.4986 8.73884 8.49424 8.7341C8.49116 8.73077 8.15578 6.76481 7.7489 4.3653C7.34204 1.96581 7.00809 0.00142034 7.0068 7.56686e-07C7.00549 -0.0014071 6.66817 1.9619 6.25717 4.36291Z" fill="white" fill-opacity="0.15"/>
</svg>
