<svg width="17" height="17" viewBox="0 0 17 17" fill="none" xmlns="http://www.w3.org/2000/svg">
<g id="Frame">
<path id="Vector" d="M14.875 5.66667V11.3333C14.875 12.2726 14.5019 13.1735 13.8377 13.8377C13.1735 14.5019 12.2726 14.875 11.3333 14.875H5.66667C4.72736 14.875 3.82652 14.5019 3.16233 13.8377C2.49814 13.1735 2.125 12.2726 2.125 11.3333V5.66667C2.125 4.72736 2.49814 3.82652 3.16233 3.16233C3.82652 2.49814 4.72736 2.125 5.66667 2.125H11.3333C12.2726 2.125 13.1735 2.49814 13.8377 3.16233C14.5019 3.82652 14.875 4.72736 14.875 5.66667Z" stroke="#00AAF1" stroke-width="1.3" stroke-linecap="round" stroke-linejoin="round"/>
<path id="Vector_2" d="M7.79167 14.8751V8.50008C7.79167 6.95025 8.14583 5.66675 10.625 5.66675M6.375 9.20841H10.625" stroke="#00AAF1" stroke-width="1.3" stroke-linecap="round" stroke-linejoin="round"/>
</g>
</svg>
