<svg width="17" height="17" viewBox="0 0 17 17" fill="none" xmlns="http://www.w3.org/2000/svg">
<g id="globe-06" clip-path="url(#clip0_332_1187)">
<path id="Icon" d="M1.90344 11.0818L3.25508 10.3015C3.32829 10.2593 3.41421 10.2446 3.4973 10.2601L6.15674 10.7578C6.37529 10.7987 6.57704 10.6305 6.57605 10.4081L6.5657 8.07799C6.56542 8.01468 6.58211 7.95245 6.61404 7.89779L7.95614 5.60007C8.02599 5.48049 8.01973 5.33116 7.94012 5.21785L5.6804 2.00136M13.4588 3.44166C9.56297 5.31237 11.6879 7.79153 12.3963 8.1457C13.7259 8.81038 15.5749 8.854 15.5749 8.854C15.5807 8.73667 15.5837 8.6186 15.5837 8.49984C15.5837 4.58782 12.4123 1.4165 8.50033 1.4165C4.58831 1.4165 1.41699 4.58782 1.41699 8.49984C1.41699 12.4119 4.58831 15.5832 8.50033 15.5832C8.61909 15.5832 8.73716 15.5802 8.85449 15.5745M11.8704 15.5405L9.62729 9.6268L15.541 11.8699L12.9187 12.9182L11.8704 15.5405Z" stroke="white" stroke-width="1.3" stroke-linecap="round" stroke-linejoin="round"/>
</g>
<defs>
<clipPath id="clip0_332_1187">
<rect width="17" height="17" fill="white"/>
</clipPath>
</defs>
</svg>
