<svg width="18" height="17" viewBox="0 0 18 17" fill="none" xmlns="http://www.w3.org/2000/svg">
<path d="M9.00033 11.3332C9.75177 11.3332 10.4724 11.0347 11.0038 10.5033C11.5351 9.97195 11.8337 9.25128 11.8337 8.49984C11.8337 7.74839 11.5351 7.02772 11.0038 6.49637C10.4724 5.96501 9.75177 5.6665 9.00033 5.6665C8.24888 5.6665 7.52821 5.96501 6.99686 6.49637C6.4655 7.02772 6.16699 7.74839 6.16699 8.49984C6.16699 9.25128 6.4655 9.97195 6.99686 10.5033C7.52821 11.0347 8.24888 11.3332 9.00033 11.3332Z" stroke="white" stroke-width="1.3" stroke-linecap="round" stroke-linejoin="round"/>
<path d="M2.625 11.3333V5.66667C2.625 4.72736 2.99814 3.82652 3.66233 3.16233C4.32652 2.49814 5.22736 2.125 6.16667 2.125H11.8333C12.7726 2.125 13.6735 2.49814 14.3377 3.16233C15.0019 3.82652 15.375 4.72736 15.375 5.66667V11.3333C15.375 12.2726 15.0019 13.1735 14.3377 13.8377C13.6735 14.5019 12.7726 14.875 11.8333 14.875H6.16667C5.22736 14.875 4.32652 14.5019 3.66233 13.8377C2.99814 13.1735 2.625 12.2726 2.625 11.3333Z" stroke="white" stroke-width="1.3" stroke-linecap="round" stroke-linejoin="round"/>
<path d="M12.8955 4.61131L12.9026 4.60352" stroke="white" stroke-width="1.5" stroke-linecap="round" stroke-linejoin="round"/>
</svg>
