<svg width="17" height="17" viewBox="0 0 17 17" fill="none" xmlns="http://www.w3.org/2000/svg">
<path d="M8.49935 11.3333C9.2508 11.3333 9.97147 11.0348 10.5028 10.5034C11.0342 9.97208 11.3327 9.25141 11.3327 8.49996C11.3327 7.74851 11.0342 7.02784 10.5028 6.49649C9.97147 5.96514 9.2508 5.66663 8.49935 5.66663C7.7479 5.66663 7.02723 5.96514 6.49588 6.49649C5.96453 7.02784 5.66602 7.74851 5.66602 8.49996C5.66602 9.25141 5.96453 9.97208 6.49588 10.5034C7.02723 11.0348 7.7479 11.3333 8.49935 11.3333Z" stroke="#686A74" stroke-width="1.3" stroke-linecap="round" stroke-linejoin="round"/>
<path d="M2.125 11.3333V5.66667C2.125 4.72736 2.49814 3.82652 3.16233 3.16233C3.82652 2.49814 4.72736 2.125 5.66667 2.125H11.3333C12.2726 2.125 13.1735 2.49814 13.8377 3.16233C14.5019 3.82652 14.875 4.72736 14.875 5.66667V11.3333C14.875 12.2726 14.5019 13.1735 13.8377 13.8377C13.1735 14.5019 12.2726 14.875 11.3333 14.875H5.66667C4.72736 14.875 3.82652 14.5019 3.16233 13.8377C2.49814 13.1735 2.125 12.2726 2.125 11.3333Z" stroke="#686A74" stroke-width="1.3" stroke-linecap="round" stroke-linejoin="round"/>
<path d="M12.3965 4.61131L12.4036 4.60352" stroke="#686A74" stroke-width="1.5" stroke-linecap="round" stroke-linejoin="round"/>
</svg>
