<svg width="17" height="17" viewBox="0 0 17 17" fill="none" xmlns="http://www.w3.org/2000/svg">
<path d="M8.50033 11.3334C9.25177 11.3334 9.97244 11.0349 10.5038 10.5036C11.0351 9.9722 11.3337 9.25153 11.3337 8.50008C11.3337 7.74863 11.0351 7.02797 10.5038 6.49661C9.97244 5.96526 9.25177 5.66675 8.50033 5.66675C7.74888 5.66675 7.02821 5.96526 6.49686 6.49661C5.9655 7.02797 5.66699 7.74863 5.66699 8.50008C5.66699 9.25153 5.9655 9.9722 6.49686 10.5036C7.02821 11.0349 7.74888 11.3334 8.50033 11.3334Z" stroke="#00AAF1" stroke-width="1.3" stroke-linecap="round" stroke-linejoin="round"/>
<path d="M2.125 11.3333V5.66667C2.125 4.72736 2.49814 3.82652 3.16233 3.16233C3.82652 2.49814 4.72736 2.125 5.66667 2.125H11.3333C12.2726 2.125 13.1735 2.49814 13.8377 3.16233C14.5019 3.82652 14.875 4.72736 14.875 5.66667V11.3333C14.875 12.2726 14.5019 13.1735 13.8377 13.8377C13.1735 14.5019 12.2726 14.875 11.3333 14.875H5.66667C4.72736 14.875 3.82652 14.5019 3.16233 13.8377C2.49814 13.1735 2.125 12.2726 2.125 11.3333Z" stroke="#00AAF1" stroke-width="1.3" stroke-linecap="round" stroke-linejoin="round"/>
<path d="M12.3955 4.61131L12.4026 4.60352" stroke="#00AAF1" stroke-width="1.5" stroke-linecap="round" stroke-linejoin="round"/>
</svg>
