<svg width="18" height="17" viewBox="0 0 18 17" fill="none" xmlns="http://www.w3.org/2000/svg">
<path d="M15.7295 12.7502L11.0241 8.50016M6.97652 8.50016L2.27118 12.7502M1.91699 4.9585L7.70048 9.00693C8.16881 9.33477 8.40297 9.49868 8.65768 9.56217C8.88267 9.61826 9.11798 9.61826 9.34297 9.56217C9.59768 9.49868 9.83184 9.33477 10.3002 9.00694L16.0837 4.9585M5.31699 14.1668H12.6837C13.8738 14.1668 14.4688 14.1668 14.9234 13.9352C15.3232 13.7315 15.6483 13.4064 15.852 13.0066C16.0837 12.552 16.0837 11.9569 16.0837 10.7668V6.2335C16.0837 5.04338 16.0837 4.44833 15.852 3.99377C15.6483 3.59392 15.3232 3.26884 14.9234 3.06511C14.4688 2.8335 13.8738 2.8335 12.6837 2.8335H5.31699C4.12688 2.8335 3.53182 2.8335 3.07726 3.06511C2.67742 3.26884 2.35233 3.59392 2.1486 3.99377C1.91699 4.44833 1.91699 5.04338 1.91699 6.2335V10.7668C1.91699 11.9569 1.91699 12.552 2.1486 13.0066C2.35233 13.4064 2.67742 13.7315 3.07726 13.9352C3.53182 14.1668 4.12688 14.1668 5.31699 14.1668Z" stroke="white" stroke-width="1.3" stroke-linecap="round" stroke-linejoin="round"/>
</svg>
