<svg width="17" height="17" viewBox="0 0 17 17" fill="none" xmlns="http://www.w3.org/2000/svg">
<g clip-path="url(#clip0_1270_2279)">
<path d="M9.95217 4.24996C10.644 4.38494 11.2799 4.72331 11.7783 5.22175C12.2767 5.72019 12.6151 6.35602 12.7501 7.04788M9.95217 1.41663C11.3896 1.57631 12.73 2.22 13.7533 3.24201C14.7765 4.26401 15.4219 5.60359 15.5834 7.04079M7.2442 9.81963C6.39308 8.96851 5.72102 8.00614 5.22802 6.97933C5.18562 6.89101 5.16441 6.84685 5.14812 6.79097C5.09024 6.59238 5.13182 6.34853 5.25224 6.18035C5.28613 6.13303 5.32661 6.09254 5.40758 6.01157C5.65522 5.76393 5.77904 5.64011 5.85999 5.5156C6.16528 5.04606 6.16528 4.44073 5.85999 3.97118C5.77904 3.84667 5.65522 3.72285 5.40758 3.47522L5.26955 3.33718C4.89311 2.96074 4.70489 2.77253 4.50275 2.67028C4.10073 2.46694 3.62596 2.46694 3.22393 2.67028C3.02179 2.77253 2.83357 2.96074 2.45713 3.33718L2.34547 3.44884C1.97032 3.82399 1.78275 4.01157 1.63949 4.26659C1.48053 4.54957 1.36623 4.98909 1.36719 5.31366C1.36806 5.60616 1.4248 5.80607 1.53828 6.20589C2.14814 8.35454 3.29881 10.382 4.99029 12.0735C6.68178 13.765 8.70928 14.9157 10.8579 15.5255C11.2578 15.639 11.4577 15.6958 11.7502 15.6966C12.0747 15.6976 12.5143 15.5833 12.7972 15.4243C13.0523 15.2811 13.2398 15.0935 13.615 14.7184L13.7266 14.6067C14.1031 14.2303 14.2913 14.042 14.3935 13.8399C14.5969 13.4379 14.5969 12.9631 14.3935 12.5611C14.2913 12.3589 14.1031 12.1707 13.7266 11.7943L13.5886 11.6562C13.341 11.4086 13.2172 11.2848 13.0926 11.2038C12.6231 10.8985 12.0178 10.8985 11.5482 11.2038C11.4237 11.2848 11.2999 11.4086 11.0523 11.6562C10.9713 11.7372 10.9308 11.7777 10.8835 11.8116C10.7153 11.932 10.4714 11.9736 10.2729 11.9157C10.217 11.8994 10.1728 11.8782 10.0845 11.8358C9.05769 11.3428 8.09531 10.6708 7.2442 9.81963Z" stroke="#00AAF1" stroke-width="1.3" stroke-linecap="round" stroke-linejoin="round"/>
</g>
<defs>
<clipPath id="clip0_1270_2279">
<rect width="17" height="17" fill="white"/>
</clipPath>
</defs>
</svg>
