<svg width="28" height="29" viewBox="0 0 28 29" fill="none" xmlns="http://www.w3.org/2000/svg">
<path d="M16.39 7.50004C17.5295 7.72237 18.5768 8.27967 19.3977 9.10063C20.2187 9.92159 20.776 10.9688 20.9983 12.1084M16.39 2.83337C18.7575 3.09638 20.9652 4.15658 22.6506 5.83988C24.336 7.52319 25.399 9.72955 25.665 12.0967M11.9298 16.6736C10.5279 15.2718 9.42102 13.6867 8.60902 11.9955C8.53918 11.85 8.50425 11.7773 8.47742 11.6852C8.38208 11.3581 8.45056 10.9565 8.64891 10.6795C8.70473 10.6016 8.77141 10.5349 8.90477 10.4015C9.31265 9.99364 9.51658 9.78971 9.64992 9.58463C10.1527 8.81126 10.1527 7.81425 9.64992 7.04088C9.51658 6.8358 9.31265 6.63187 8.90477 6.22399L8.67742 5.99664C8.05741 5.37663 7.7474 5.06662 7.41446 4.89822C6.7523 4.5633 5.97033 4.5633 5.30817 4.89822C4.97523 5.06662 4.66522 5.37663 4.0452 5.99664L3.86129 6.18055C3.2434 6.79845 2.93445 7.10739 2.6985 7.52743C2.43667 7.99352 2.24842 8.71743 2.25001 9.25202C2.25144 9.73379 2.3449 10.0631 2.53181 10.7216C3.53627 14.2605 5.43149 17.6 8.21747 20.3859C11.0034 23.1719 14.3429 25.0671 17.8818 26.0716C18.5403 26.2585 18.8696 26.352 19.3514 26.3534C19.886 26.355 20.6099 26.1667 21.076 25.9049C21.496 25.6689 21.805 25.36 22.4228 24.7421L22.6068 24.5582C23.2268 23.9382 23.5368 23.6282 23.7052 23.2952C24.0401 22.6331 24.0401 21.8511 23.7052 21.1889C23.5368 20.856 23.2268 20.546 22.6068 19.926L22.3794 19.6986C21.9715 19.2908 21.7676 19.0868 21.5625 18.9535C20.7891 18.4507 19.7921 18.4507 19.0188 18.9535C18.8137 19.0868 18.6098 19.2908 18.2019 19.6986C18.0685 19.832 18.0018 19.8987 17.9239 19.9545C17.6469 20.1528 17.2452 20.2213 16.9182 20.126C16.8261 20.0991 16.7534 20.0642 16.6079 19.9944C14.9167 19.1824 13.3316 18.0755 11.9298 16.6736Z" stroke="#00AAF1" stroke-width="2" stroke-linecap="round" stroke-linejoin="round"/>
</svg>
