<svg width="18" height="17" viewBox="0 0 18 17" fill="none" xmlns="http://www.w3.org/2000/svg">
<path d="M10.7022 4.24984C11.394 4.38482 12.0299 4.72319 12.5283 5.22162C13.0267 5.72006 13.3651 6.3559 13.5001 7.04775M10.7022 1.4165C12.1396 1.57619 13.48 2.21988 14.5033 3.24188C15.5265 4.26389 16.1719 5.60347 16.3334 7.04067M7.9942 9.81951C7.14308 8.96839 6.47102 8.00602 5.97802 6.97921C5.93562 6.89089 5.91441 6.84672 5.89812 6.79084C5.84024 6.59226 5.88182 6.34841 6.00224 6.18023C6.03613 6.13291 6.07661 6.09242 6.15758 6.01145C6.40522 5.76381 6.52904 5.63999 6.60999 5.51548C6.91528 5.04593 6.91528 4.44061 6.60999 3.97106C6.52904 3.84655 6.40522 3.72273 6.15758 3.47509L6.01955 3.33706C5.64311 2.96062 5.45489 2.7724 5.25275 2.67016C4.85073 2.46682 4.37596 2.46682 3.97393 2.67016C3.77179 2.7724 3.58357 2.96062 3.20713 3.33706L3.09547 3.44872C2.72032 3.82387 2.53275 4.01144 2.38949 4.26647C2.23053 4.54945 2.11623 4.98896 2.11719 5.31354C2.11806 5.60604 2.1748 5.80595 2.28828 6.20577C2.89814 8.35442 4.04881 10.3819 5.74029 12.0734C7.43178 13.7649 9.45928 14.9156 11.6079 15.5254C12.0078 15.6389 12.2077 15.6956 12.5002 15.6965C12.8247 15.6975 13.2643 15.5832 13.5472 15.4242C13.8023 15.281 13.9898 15.0934 14.365 14.7182L14.4766 14.6066C14.8531 14.2301 15.0413 14.0419 15.1435 13.8398C15.3469 13.4377 15.3469 12.963 15.1435 12.561C15.0413 12.3588 14.8531 12.1706 14.4766 11.7942L14.3386 11.6561C14.091 11.4085 13.9672 11.2847 13.8426 11.2037C13.3731 10.8984 12.7678 10.8984 12.2982 11.2037C12.1737 11.2847 12.0499 11.4085 11.8023 11.6561C11.7213 11.7371 11.6808 11.7776 11.6335 11.8115C11.4653 11.9319 11.2214 11.9735 11.0229 11.9156C10.967 11.8993 10.9228 11.8781 10.8345 11.8357C9.80769 11.3427 8.84531 10.6706 7.9942 9.81951Z" stroke="white" stroke-width="1.3" stroke-linecap="round" stroke-linejoin="round"/>
</svg>
