<svg width="15" height="16" viewBox="0 0 15 16" fill="none" xmlns="http://www.w3.org/2000/svg">
<path d="M6.56289 7.99999H3.12539M3.07248 8.18218L1.61315 12.5414C1.49851 12.8838 1.44118 13.0551 1.48232 13.1605C1.51805 13.2521 1.59477 13.3215 1.68945 13.3479C1.79847 13.3784 1.96314 13.3043 2.29247 13.1561L12.7371 8.45595C13.0586 8.3113 13.2193 8.23897 13.269 8.1385C13.3122 8.0512 13.3122 7.94878 13.269 7.86149C13.2193 7.76101 13.0586 7.68869 12.7371 7.54403L2.28883 2.84232C1.96049 2.69457 1.79632 2.62069 1.68741 2.651C1.59282 2.67731 1.5161 2.74655 1.48025 2.83796C1.43897 2.9432 1.49568 3.11406 1.60911 3.45579L3.07289 7.86595C3.09237 7.92464 3.10211 7.95398 3.10595 7.984C3.10936 8.01063 3.10933 8.03759 3.10585 8.06421C3.10193 8.09422 3.09211 8.12354 3.07248 8.18218Z" stroke="white" stroke-width="1.3" stroke-linecap="round" stroke-linejoin="round"/>
</svg>
