<svg width="7" height="9" viewBox="0 0 7 9" fill="none" xmlns="http://www.w3.org/2000/svg">
<path d="M1.232 8.636C1.15733 8.636 1.092 8.61267 1.036 8.566C0.98 8.51933 0.952 8.44933 0.952 8.356V7.74C0.952 7.628 0.975333 7.53933 1.022 7.474C1.078 7.40867 1.162 7.34333 1.274 7.278L5.012 4.716L1.274 2.154C1.162 2.07933 1.078 2.00933 1.022 1.944C0.975333 1.87867 0.952 1.79 0.952 1.678V1.062C0.952 0.968666 0.98 0.898666 1.036 0.852C1.092 0.805333 1.15733 0.782 1.232 0.782C1.288 0.782 1.34867 0.800667 1.414 0.838C1.47933 0.866 1.53067 0.893999 1.568 0.922L5.964 3.946C6.11333 4.04867 6.216 4.14667 6.272 4.24C6.33733 4.33333 6.37 4.45 6.37 4.59V4.828C6.37 4.95867 6.33733 5.07533 6.272 5.178C6.216 5.27133 6.11333 5.36933 5.964 5.472L1.568 8.496C1.53067 8.524 1.47933 8.55667 1.414 8.594C1.34867 8.622 1.288 8.636 1.232 8.636Z" fill="#3E404D" fill-opacity="0.5"/>
</svg>
