<svg width="16" height="16" viewBox="0 0 16 16" fill="none" xmlns="http://www.w3.org/2000/svg">
<g clip-path="url(#clip0_371_368)">
<path d="M5.33301 9.33337C5.33301 9.33337 6.33301 10.6667 7.99967 10.6667C9.66634 10.6667 10.6663 9.33337 10.6663 9.33337M9.99967 6.00004H10.0063M5.99967 6.00004H6.00634M14.6663 8.00004C14.6663 11.6819 11.6816 14.6667 7.99967 14.6667C4.31778 14.6667 1.33301 11.6819 1.33301 8.00004C1.33301 4.31814 4.31778 1.33337 7.99967 1.33337C11.6816 1.33337 14.6663 4.31814 14.6663 8.00004ZM10.333 6.00004C10.333 6.18414 10.1838 6.33337 9.99967 6.33337C9.81558 6.33337 9.66634 6.18414 9.66634 6.00004C9.66634 5.81595 9.81558 5.66671 9.99967 5.66671C10.1838 5.66671 10.333 5.81595 10.333 6.00004ZM6.33301 6.00004C6.33301 6.18414 6.18377 6.33337 5.99967 6.33337C5.81558 6.33337 5.66634 6.18414 5.66634 6.00004C5.66634 5.81595 5.81558 5.66671 5.99967 5.66671C6.18377 5.66671 6.33301 5.81595 6.33301 6.00004Z" stroke="white" stroke-width="1.3" stroke-linecap="round" stroke-linejoin="round"/>
</g>
<defs>
<clipPath id="clip0_371_368">
<rect width="16" height="16" fill="white"/>
</clipPath>
</defs>
</svg>
