<svg width="17" height="17" viewBox="0 0 17 17" fill="none" xmlns="http://www.w3.org/2000/svg">
<path d="M5.83301 9.8335C5.83301 9.8335 6.83301 11.1668 8.49967 11.1668C10.1663 11.1668 11.1663 9.8335 11.1663 9.8335M10.4997 6.50016H10.5063M6.49967 6.50016H6.50634M15.1663 8.50016C15.1663 12.1821 12.1816 15.1668 8.49967 15.1668C4.81778 15.1668 1.83301 12.1821 1.83301 8.50016C1.83301 4.81826 4.81778 1.8335 8.49967 1.8335C12.1816 1.8335 15.1663 4.81826 15.1663 8.50016ZM10.833 6.50016C10.833 6.68426 10.6838 6.8335 10.4997 6.8335C10.3156 6.8335 10.1663 6.68426 10.1663 6.50016C10.1663 6.31607 10.3156 6.16683 10.4997 6.16683C10.6838 6.16683 10.833 6.31607 10.833 6.50016ZM6.83301 6.50016C6.83301 6.68426 6.68377 6.8335 6.49967 6.8335C6.31558 6.8335 6.16634 6.68426 6.16634 6.50016C6.16634 6.31607 6.31558 6.16683 6.49967 6.16683C6.68377 6.16683 6.83301 6.31607 6.83301 6.50016Z" stroke="#141A20" stroke-width="1.3" stroke-linecap="round" stroke-linejoin="round"/>
</svg>
