<svg width="17" height="17" viewBox="0 0 17 17" fill="none" xmlns="http://www.w3.org/2000/svg">
<path d="M15.0558 1.66257C14.632 1.28335 12.9367 0.0341711 9.12221 0.0118643C9.12221 0.0118643 4.63855 -0.25582 2.45249 1.75179C1.22561 2.97866 0.801783 4.7409 0.757169 6.94928C0.712555 9.15765 0.645641 13.2844 4.63856 14.422V16.1397C4.63856 16.1397 4.61625 16.8312 5.06238 16.965C5.62005 17.1435 5.93235 16.6081 6.46771 16.0504C6.7577 15.7381 7.15922 15.292 7.44921 14.9351C10.1706 15.1582 12.2675 14.6451 12.5128 14.5559C13.0705 14.3774 16.1712 13.9759 16.6842 9.84916C17.2196 5.56626 16.4611 2.86713 15.0558 1.66257ZM15.5243 9.51456C15.1004 12.9721 12.5798 13.1952 12.1113 13.329C11.9106 13.3959 10.0814 13.8421 7.76151 13.7082C7.76151 13.7082 6.04388 15.7828 5.48621 16.3404C5.39698 16.4297 5.30776 16.452 5.24084 16.452C5.15161 16.4297 5.1293 16.3181 5.1293 16.162C5.1293 15.9389 5.15161 13.3067 5.15161 13.3067C1.78328 12.3698 1.98404 8.84535 2.00635 6.99389C2.05096 5.14242 2.38557 3.64787 3.41168 2.62175C5.26315 0.948745 9.07761 1.19412 9.07761 1.19412C12.2898 1.21643 13.8289 2.17562 14.1859 2.51022C15.3458 3.53633 15.9481 5.96778 15.5243 9.51456Z" fill="white"/>
<path d="M10.6835 6.85994C10.6389 6.01225 10.215 5.5661 9.38965 5.52148" stroke="white" stroke-width="0.429852" stroke-linecap="round" stroke-linejoin="round"/>
<path d="M11.7988 7.21719C11.8211 6.43643 11.5758 5.7672 11.1073 5.25412C10.6165 4.71874 9.9473 4.42874 9.09961 4.36182" stroke="white" stroke-width="0.429852" stroke-linecap="round" stroke-linejoin="round"/>
<path d="M12.9142 7.66316C12.9142 6.30239 12.4904 5.23163 11.6873 4.45086C10.8842 3.67009 9.88039 3.26855 8.67578 3.26855" stroke="white" stroke-width="0.429852" stroke-linecap="round" stroke-linejoin="round"/>
<path d="M9.43443 9.73782C9.43443 9.73782 9.74672 9.76012 9.90287 9.55936L10.2152 9.15784C10.3713 8.95708 10.7282 8.82324 11.1074 9.024C11.3082 9.13553 11.6651 9.3586 11.8882 9.53705C12.1336 9.71551 12.6243 10.117 12.6243 10.117C12.8697 10.3178 12.9143 10.6078 12.7581 10.9201C12.602 11.2101 12.3789 11.4777 12.0889 11.7231C11.8659 11.9239 11.6428 12.0131 11.4197 12.0577H11.3305C11.2413 12.0577 11.1297 12.0354 11.0405 12.0131C10.7059 11.9239 10.1482 11.6785 9.18906 11.1655C8.58677 10.8309 8.07372 10.4739 7.64989 10.1393C7.42682 9.96088 7.18144 9.76013 6.95838 9.51475L6.86915 9.42552C6.62378 9.18014 6.42301 8.95708 6.24456 8.73401C5.90996 8.31018 5.55305 7.79712 5.21844 7.19484C4.70539 6.25795 4.46002 5.70029 4.37079 5.34338C4.34848 5.25415 4.32617 5.16493 4.32617 5.05339V4.96416C4.34848 4.74109 4.46001 4.51803 4.66077 4.29496C4.90615 4.02728 5.17383 3.80421 5.46382 3.62575C5.77611 3.46961 6.0661 3.51422 6.26687 3.7596C6.26687 3.7596 6.66839 4.25035 6.84684 4.49572C7.00299 4.71879 7.22606 5.0757 7.3599 5.27646C7.56066 5.63337 7.42682 6.01259 7.24836 6.16873L6.84684 6.48103C6.64608 6.63717 6.66838 6.94947 6.66838 6.94947C6.66838 6.94947 7.22606 9.15784 9.43443 9.73782Z" fill="white"/>
</svg>
