<svg width="117" height="79" viewBox="0 0 117 79" fill="none" xmlns="http://www.w3.org/2000/svg">
<path d="M35.442 11.9737C35.6316 12.0835 35.7711 12.0378 35.8606 11.8364C39.4346 3.78393 45.9468 1.55213 54.165 1.72472C55.2122 1.74681 56.2882 1.66608 57.3454 1.58675C58.5409 1.49706 59.7124 1.40916 60.7917 1.47368C62.5925 1.57828 64.4592 1.68157 66.3917 1.78355C68.906 1.91429 70.7528 2.15225 71.9323 2.49741C76.1145 3.71725 80.5612 6.49031 81.3669 11.0873M35.442 11.9737C34.5558 11.4634 33.6134 11.0827 32.6719 10.7025C31.7464 10.3287 30.8219 9.95531 29.9527 9.4595C27.2383 7.90627 24.8043 6.35303 22.6507 4.7998C21.6186 4.05195 20.3812 3.44921 18.9385 2.99161C14.7642 1.66195 9.96596 0.9834 5.96546 3.3054C5.94364 3.31805 5.92176 3.33073 5.89983 3.34345C4.30943 4.2653 2.40785 5.36752 1.5937 7.00021M35.442 11.9737L35.3672 12.1037M35.442 11.9737L35.3668 12.1035C35.367 12.1035 35.3671 12.1036 35.3672 12.1037M1.5937 7.00021C1.25144 7.69053 0.998727 8.49723 0.835495 9.42027C0.156239 13.2406 0.326022 17.057 3.07464 20.0458C3.29159 20.2824 3.50476 20.52 3.7172 20.7567C4.5682 21.7052 5.40751 22.6406 6.43143 23.4504M1.5937 7.00021L1.72809 7.06684C1.72807 7.06689 1.72804 7.06694 1.72802 7.06699M1.5937 7.00021L1.72794 7.06715C1.72797 7.06709 1.72799 7.06704 1.72802 7.06699M6.43143 23.4504C7.65831 24.4179 8.87201 25.3592 10.0726 26.2744C10.2742 26.4286 10.5049 26.5356 10.7344 26.642C11.0127 26.771 11.2893 26.8992 11.5101 27.1099C11.5943 27.1909 11.6443 27.2903 11.6601 27.408C12.1775 31.3852 15.2736 35.2526 19.3294 35.9664C27.3897 37.3902 34.6206 32.3344 29.5301 23.721C28.1663 21.4094 26.1062 19.8536 23.3496 19.0535C19.6019 17.9631 15.6567 19.532 13.3425 22.5796C13.2266 22.7313 13.0924 22.7509 12.9397 22.6384C10.5991 20.9048 8.56267 19.1947 6.8303 17.5081M6.43143 23.4504L6.52432 23.3326M6.43143 23.4504L6.52448 23.3327C6.52443 23.3327 6.52437 23.3326 6.52432 23.3326M6.8303 17.5081C5.57052 16.2843 5.32569 14.2722 5.22301 12.5267C4.96237 8.05138 8.91546 5.56465 12.9949 6.2589M6.8303 17.5081L6.72579 17.6157C6.72575 17.6156 6.72571 17.6156 6.72567 17.6155M6.8303 17.5081L6.72567 17.6155M12.9949 6.2589C15.7396 6.72565 18.3421 7.21593 20.5852 8.77701M12.9949 6.2589L13.0201 6.11102C13.0201 6.11102 13.0201 6.11102 13.0201 6.11102M12.9949 6.2589L13.0201 6.11102M20.5852 8.77701C22.5414 10.1367 24.8214 11.554 27.4252 13.0288C28.6457 13.7225 29.9286 14.2338 31.2178 14.7476C32.5817 15.2912 33.9528 15.8377 35.2643 16.6059M20.5852 8.77701L20.6708 8.65384C20.6709 8.65386 20.6709 8.65388 20.6709 8.65389M20.5852 8.77701L20.6709 8.65389M35.2643 16.6059C35.3758 16.6712 35.4717 16.7593 35.5453 16.8643C35.619 16.9693 35.6686 17.0885 35.6908 17.2139C35.8435 18.1056 36.1226 19.0325 36.5281 19.9948C39.0472 25.9989 42.2506 31.2662 45.5605 36.7087C45.7167 36.9655 45.8731 37.2227 46.0297 37.4804C47.021 39.1121 48.0162 41.5008 47.4198 43.3286M35.2643 16.6059L35.3401 16.4765C34.0534 15.7228 32.7114 15.1817 31.3855 14.653L31.2769 14.6097C29.9851 14.0949 28.7106 13.5869 27.4993 12.8984L27.4991 12.8983C24.8984 11.4252 22.6225 10.0104 20.6709 8.65389M35.2643 16.6059L107.883 24.1644M47.4198 43.3286C46.9528 44.7642 46.2116 46.0405 45.4721 47.3138C44.767 48.5278 44.0636 49.7391 43.601 51.083C42.7348 53.5933 42.6992 56.2604 43.4943 59.0845C43.9919 60.8574 44.6423 62.5426 45.4453 64.1403C46.0389 65.3248 46.6244 66.5303 47.2131 67.7423C48.8292 71.0695 50.4692 74.4462 52.3682 77.5742M47.4198 43.3286L47.5625 43.375C47.1007 44.7946 46.3748 46.0579 45.6535 47.3002L45.6047 47.3841C44.8976 48.6018 44.2006 49.8019 43.7428 51.1318L43.7428 51.1319C42.8876 53.6103 42.851 56.246 43.6387 59.0438L43.6388 59.0439C44.1338 60.8078 44.7807 62.4841 45.5793 64.073L45.5794 64.0731C46.1749 65.2614 46.7615 66.4692 47.3509 67.6825C48.966 71.0077 50.6014 74.3749 52.4964 77.4964L52.3682 77.5742M47.4198 43.3286L52.0234 40.627M52.3682 77.5742C54.0821 80.3983 58.0668 78.6803 56.0685 75.4444C54.3587 72.6757 52.919 69.5767 51.5132 66.5507C50.9513 65.3413 50.3949 64.1436 49.8288 62.9832C47.8384 58.9001 46.3496 54.5935 48.9877 50.4672C50.8122 47.6196 52.846 44.1091 52.1707 40.5987M52.3682 77.5742L52.4964 77.4964C53.3167 78.8481 54.659 79.0904 55.5433 78.6477C55.9857 78.4262 56.3182 78.0327 56.4276 77.5088C56.5371 76.9838 56.426 76.3087 55.9409 75.5232C54.2261 72.7465 52.7804 69.6345 51.3731 66.6054C50.8122 65.398 50.2573 64.2037 49.694 63.049L49.694 63.049C47.7036 58.9659 46.1753 54.5876 48.8613 50.3864L48.8614 50.3863C49.773 48.9633 50.7306 47.3845 51.3769 45.727C52.0229 44.0701 52.3539 42.3449 52.0234 40.627M52.1707 40.5987C51.76 38.4728 50.8714 36.4136 49.6985 34.4916C49.4297 34.0525 49.16 33.6135 48.8902 33.1742C46.4368 29.1799 43.9706 25.1649 42.0174 20.8538M52.1707 40.5987L52.0234 40.627M52.1707 40.5987L52.0234 40.6271C52.0234 40.6271 52.0234 40.6271 52.0234 40.627M42.0174 20.8538C41.9109 20.6195 41.7999 20.3809 41.6871 20.1386C40.5822 17.765 39.3136 15.0399 40.6431 12.5699M42.0174 20.8538L41.8808 20.9158C41.8808 20.9158 41.8808 20.9157 41.8807 20.9157M42.0174 20.8538L41.8807 20.9157M40.6431 12.5699C41.7844 10.4479 43.5576 8.51029 45.8915 7.57286C49.0369 6.31029 52.2851 6.27464 55.5936 6.23833C56.4889 6.2285 57.3886 6.21862 58.2919 6.18437C60.7818 6.09046 63.2918 6.23638 65.846 6.38487C66.4923 6.42244 67.1413 6.46017 67.7936 6.49423C70.4053 6.6302 72.7722 7.48919 74.8942 9.07118M40.6431 12.5699L40.511 12.4988M40.6431 12.5699L40.511 12.4988C40.511 12.4988 40.511 12.4988 40.511 12.4988M74.8942 9.07118C78.7683 11.9541 76.7226 18.4926 74.6967 22.0422C72.5194 25.8573 70.5514 29.394 68.7927 32.6521C67.3816 35.2617 66.5641 37.8962 66.3403 40.5555C66.0697 43.7415 67.3783 45.9517 68.8744 48.4786C69.0157 48.7173 69.1587 48.9588 69.3022 49.2042M74.8942 9.07118L74.9838 8.95093M74.8942 9.07118L74.9837 8.95085C74.9838 8.95087 74.9838 8.9509 74.9838 8.95093M69.3022 49.2042C71.4821 52.9265 71.4663 57.343 70.0249 61.4143M69.3022 49.2042L69.4317 49.1285M69.3022 49.2042L69.4316 49.1284C69.4316 49.1284 69.4317 49.1284 69.4317 49.1285M70.0249 61.4143C69.135 63.9351 68.07 66.3499 66.83 68.6588C65.6453 70.8658 64.5908 73.0113 63.6667 75.0953M70.0249 61.4143L70.1663 61.4644C70.1663 61.4643 70.1663 61.4643 70.1663 61.4643M70.0249 61.4143L70.1663 61.4643M63.6667 75.0953C62.2174 78.3626 66.7115 79.8806 68.0898 76.7074C68.7611 75.162 69.4522 73.7251 70.1631 72.3968C74.1873 64.8934 78.0061 56.4134 73.978 48.0511C73.5888 47.2432 73.1553 46.5256 72.7416 45.8408C71.476 43.7458 70.3955 41.9572 71.336 38.8297M63.6667 75.0953L63.8038 75.1561C64.7263 73.0758 65.779 70.9337 66.9622 68.7298C68.2059 66.414 69.2739 63.9921 70.1663 61.4643M63.6667 75.0953L70.1663 61.4643M71.336 38.8297C71.9046 36.9313 72.6339 35.195 73.5238 33.6209C75.2746 30.5275 77.0662 27.3347 78.8986 24.0426C80.2914 21.548 81.1813 19.0051 81.5683 16.4137M71.336 38.8297L71.1923 38.7865C71.1923 38.7865 71.1923 38.7866 71.1923 38.7866M71.336 38.8297L71.1923 38.7867C71.1923 38.7866 71.1923 38.7866 71.1923 38.7866M81.5683 16.4137C81.6078 16.147 81.7592 15.9823 82.0224 15.9195M81.5683 16.4137L81.4199 16.3916C81.4199 16.3916 81.4199 16.3917 81.4199 16.3918M81.5683 16.4137L81.4199 16.3918M82.0224 15.9195C84.7263 15.2737 87.1379 14.1179 89.2573 12.4522C91.998 10.3028 95.0705 8.34164 97.9415 6.59621C100.169 5.24432 102.538 4.59453 105.05 4.64683C106.969 4.68997 108.979 5.90981 110.397 7.02767C111.508 7.90103 111.978 9.13786 111.807 10.7382M82.0224 15.9195L81.9876 15.7736C81.9876 15.7736 81.9876 15.7736 81.9877 15.7736C84.6711 15.1326 87.0628 13.9861 89.1646 12.3343L89.1647 12.3342C91.9126 10.1791 94.9912 8.21428 97.8636 6.46804L97.8637 6.46798C100.114 5.10188 102.512 4.44394 105.053 4.49686L105.053 4.49686C107.025 4.54117 109.068 5.78858 110.49 6.90988C111.648 7.82005 112.132 9.1109 111.956 10.754M82.0224 15.9195L107.883 24.1644M111.807 10.7382C111.412 14.4526 108.154 18.1788 105.22 20.4929C105.117 20.5728 104.99 20.6153 104.859 20.6131C104.729 20.611 104.604 20.5644 104.505 20.4812C101.231 17.7395 97.1675 17.4022 93.6409 20.034C91.0305 21.9795 88.7163 24.5408 88.349 27.6943C88.041 30.3183 89.7075 32.3815 92.1481 33.315C95.5391 34.6145 98.6655 34.4851 101.527 32.9266C104.763 31.1642 106.806 28.4513 107.656 24.7878M111.807 10.7382L111.956 10.7541C111.956 10.7541 111.956 10.7541 111.956 10.754M111.807 10.7382L111.956 10.754M107.656 24.7878C107.702 24.5872 107.815 24.4087 107.976 24.2819M107.656 24.7878L107.51 24.7543C107.564 24.5207 107.695 24.3125 107.883 24.1644M107.656 24.7878L107.51 24.7539C106.669 28.3766 104.653 31.0534 101.456 32.7949C98.6371 34.3298 95.5571 34.4608 92.2018 33.1749L92.2017 33.1749C89.8069 32.2589 88.2 30.2499 88.498 27.7118L88.498 27.7116C88.858 24.6209 91.1302 22.0923 93.7305 20.1543L93.7306 20.1542C95.4683 18.8574 97.3318 18.2962 99.1599 18.3923C100.989 18.4884 102.793 19.2431 104.409 20.5962C104.534 20.7016 104.693 20.7604 104.857 20.7631C105.021 20.7658 105.182 20.7122 105.312 20.6114L105.313 20.6107C106.788 19.4468 108.347 17.9272 109.587 16.2291C110.826 14.5324 111.755 12.6473 111.956 10.754M107.976 24.2819C110.549 22.2397 112.69 19.8379 114.402 17.0766C116.747 13.2955 117.616 7.93372 114.406 4.47424C113.042 3.00469 111.141 1.75347 108.703 0.720595C104.821 -0.926773 99.4343 0.497027 96.042 2.51309M107.976 24.2819L107.884 24.164C107.883 24.1642 107.883 24.1643 107.883 24.1644M107.976 24.2819L107.883 24.1644M96.042 2.51309C93.4882 4.03233 90.0563 6.4171 85.7465 9.66738M96.042 2.51309L96.1186 2.64204C96.1186 2.64203 96.1186 2.64202 96.1187 2.642M96.042 2.51309L96.1187 2.642M85.7465 9.66738C84.5828 10.546 83.3388 11.1579 82.0145 11.503C81.9444 11.5209 81.8712 11.5241 81.7998 11.5125C81.7283 11.5009 81.66 11.4748 81.5992 11.4358C81.5384 11.3967 81.4863 11.3456 81.4464 11.2856C81.4064 11.2256 81.3793 11.1581 81.3669 11.0873M85.7465 9.66738L85.8368 9.78714C85.8368 9.78713 85.8368 9.78711 85.8369 9.78709M85.7465 9.66738L85.8369 9.78709M81.3669 11.0873L81.2191 11.1132C81.2352 11.2046 81.2701 11.2916 81.3215 11.3688C81.373 11.446 81.4399 11.5118 81.5181 11.562C81.5963 11.6122 81.684 11.6457 81.7758 11.6606C81.8675 11.6754 81.9614 11.6713 82.0515 11.6484L82.0524 11.6482C83.3969 11.2977 84.6585 10.6767 85.8369 9.78709M81.3669 11.0873L81.2191 11.1131C80.4288 6.60379 76.0567 3.85666 71.8903 2.64141L71.8902 2.64137C70.7283 2.30136 68.896 2.06398 66.3839 1.93335L66.3838 1.93334C64.451 1.83135 62.5841 1.72804 60.783 1.62343L60.7828 1.62342C59.7775 1.56331 58.6884 1.6369 57.5636 1.72084C57.4941 1.72602 57.4246 1.73124 57.3549 1.73647C56.2993 1.81568 55.2166 1.89693 54.1619 1.87468C50.0653 1.78866 46.4099 2.30255 43.338 3.83047C40.2702 5.35639 37.772 7.89981 35.9977 11.8973L35.9977 11.8974C35.9444 12.0173 35.8622 12.1227 35.7356 12.1643C35.6088 12.2058 35.4805 12.1693 35.3672 12.1037M85.8369 9.78709C90.1452 6.53794 93.5719 4.15704 96.1187 2.642M96.1187 2.642C97.7998 1.64292 99.9775 0.789501 102.215 0.390729C104.454 -0.00828004 106.739 0.0502312 108.644 0.858677L108.644 0.858711C111.069 1.88585 112.95 3.12637 114.296 4.57628C117.438 7.96212 116.605 13.24 114.274 16.9975L114.274 16.9976C112.572 19.744 110.442 22.1328 107.883 24.1644M81.4199 16.3918C81.0358 18.9636 80.1524 21.4893 78.7677 23.9695L78.7676 23.9697C76.9353 27.2615 75.1439 30.4539 73.3933 33.547L73.3932 33.5471C72.4974 35.1318 71.7639 36.8785 71.1923 38.7866M81.4199 16.3918L71.1923 38.7866M35.3672 12.1037C34.499 11.6037 33.5746 11.2289 32.6397 10.8513L32.6115 10.8399C31.6889 10.4673 30.7564 10.0906 29.8784 9.58979L29.8782 9.58969C27.16 8.03429 24.7215 6.47825 22.5629 4.92146L22.5627 4.92126C21.5458 4.18439 20.3234 3.58823 18.8931 3.13459L18.8929 3.13454C14.7282 1.80791 9.98382 1.14647 6.04076 3.43514L6.04069 3.43517C6.01986 3.44725 5.99897 3.45936 5.97803 3.4715C5.1917 3.92729 4.33892 4.42161 3.57867 5.00007C2.79816 5.59395 2.1262 6.26856 1.72802 7.06699M1.72802 7.06699C1.39334 7.74206 1.14445 8.53455 0.983203 9.4464L0.983179 9.44653C0.306943 13.2499 0.483836 17.007 3.18505 19.9443L3.18521 19.9444C3.40459 20.1837 3.61936 20.423 3.83278 20.6609C4.68287 21.6081 5.5115 22.5315 6.52432 23.3326M6.52432 23.3326C7.75057 24.2996 8.96362 25.2404 10.1635 26.1551L10.1637 26.1553C10.3515 26.2989 10.567 26.3989 10.799 26.5065C10.8228 26.5176 10.8468 26.5287 10.871 26.54C11.1238 26.658 11.3924 26.7903 11.6136 27.0014L11.6141 27.0018C11.7231 27.1067 11.7886 27.2373 11.8088 27.388L11.8089 27.3886C12.3194 31.3133 15.3758 35.1182 19.3554 35.8187L19.3555 35.8187C23.3547 36.5251 27.122 35.6189 29.2556 33.5012C30.32 32.4448 30.9815 31.0844 31.0675 29.4604C31.1535 27.8342 30.6628 25.9324 29.401 23.7973L29.4009 23.7972C28.058 21.521 26.0304 19.9878 23.3078 19.1975L23.3077 19.1975C19.6267 18.1265 15.7432 19.666 13.4619 22.6703L13.4617 22.6707C13.3897 22.7648 13.2959 22.8391 13.1766 22.8565C13.057 22.8739 12.946 22.8294 12.8507 22.7592L12.8504 22.759C10.5055 21.0221 8.46371 19.3077 6.72567 17.6155M6.72567 17.6155C6.06956 16.9781 5.68332 16.1409 5.44774 15.2514C5.21223 14.3621 5.12474 13.4104 5.07327 12.5355L5.07327 12.5355C4.94 10.2472 5.88589 8.45833 7.39169 7.33402C8.89383 6.21244 10.9446 5.75781 13.0201 6.11102M13.0201 6.11102C15.7615 6.57722 18.3965 7.07107 20.6709 8.65389M70.1663 61.4643C71.6184 57.3628 71.6394 52.8982 69.4317 49.1285M70.1663 61.4643L49.5705 34.5698C49.3017 34.1307 49.032 33.6916 48.7621 33.2522C46.3093 29.2591 43.8381 25.2359 41.8807 20.9157M69.4317 49.1285C69.2886 48.8837 69.1462 48.6432 69.0058 48.4059C67.5074 45.874 66.2234 43.7044 66.4898 40.5682L66.4898 40.5681C66.7117 37.9315 67.5222 35.3169 68.9247 32.7234L68.9247 32.7233C70.6828 29.4664 72.6502 25.9308 74.827 22.1166C75.8469 20.3296 76.8736 17.788 77.157 15.3238C77.4401 12.8616 76.9832 10.4388 74.9838 8.95093M74.9838 8.95093C72.8383 7.35144 70.4431 6.48196 67.8014 6.34443C67.1512 6.31049 66.5036 6.27283 65.8582 6.23531C63.3032 6.08675 60.7841 5.94027 58.2863 6.03448L58.2862 6.03448C57.3851 6.06865 56.4877 6.0785 55.5923 6.08833C55.4366 6.09004 55.2809 6.09175 55.1253 6.09359C54.076 6.10597 53.0299 6.12413 51.9907 6.18762C49.912 6.31462 47.8546 6.62325 45.8356 7.43366L45.8356 7.43367C43.46 8.38784 41.6636 10.3558 40.511 12.4988M40.511 12.4988C39.7535 13.9061 39.8164 15.3881 40.205 16.8231C40.5209 17.9893 41.0569 19.1405 41.5532 20.2067C41.6654 20.4476 41.7756 20.6842 41.8807 20.9157" fill="#00ADF8" stroke="#F5F5F7" stroke-width="0.3"/>
</svg>
