<svg width="194" height="487" viewBox="0 0 194 487" fill="none" xmlns="http://www.w3.org/2000/svg">
<path opacity="0.7" d="M192.571 243.694C192.571 310.703 181.783 371.322 164.378 415.152C155.674 437.07 145.334 454.74 133.904 466.913C122.476 479.085 110.029 485.694 97.0713 485.694C84.1137 485.694 71.6664 479.085 60.2382 466.913C48.8082 454.74 38.4689 437.07 29.7649 415.152C12.3591 371.322 1.57129 310.703 1.57129 243.694C1.57129 176.685 12.3591 116.066 29.7649 72.2362C38.4689 50.3183 48.8082 32.6485 60.2382 20.4747C71.6664 8.30274 84.1137 1.69409 97.0713 1.69409C110.029 1.69409 122.476 8.30274 133.904 20.4747C145.334 32.6485 155.674 50.3183 164.378 72.2362C181.783 116.066 192.571 176.685 192.571 243.694Z" stroke="url(#paint0_linear_511_622)" stroke-width="2"/>
<defs>
<linearGradient id="paint0_linear_511_622" x1="97.0713" y1="0.694092" x2="97.0713" y2="486.694" gradientUnits="userSpaceOnUse">
<stop stop-color="#068FFF" stop-opacity="0.35"/>
<stop offset="1" stop-color="#068FFF" stop-opacity="0"/>
</linearGradient>
</defs>
</svg>
