<svg width="150" height="82" viewBox="0 0 150 82" fill="none" xmlns="http://www.w3.org/2000/svg">
<path d="M64.0047 17.0182C61.7208 36.9499 59.4369 56.8804 57.153 76.8098C56.9548 78.5519 57.4268 81.7404 55.0204 81.9856C52.2393 82.2634 52.4555 78.4401 52.2177 76.7196C51.173 69.097 50.1235 61.4348 49.0692 53.7328C49.0626 53.6852 49.0466 53.6394 49.0221 53.5981C48.9976 53.5568 48.9651 53.5208 48.9265 53.4923C48.8879 53.4637 48.844 53.4431 48.7974 53.4318C48.7507 53.4205 48.7023 53.4186 48.6549 53.4262C47.3748 53.6258 46.1837 53.6811 45.0814 53.5922C42.376 53.3794 41.3025 51.7562 40.7693 49.3324C40.2433 46.9422 39.6837 44.4655 39.0905 41.9022C39.0425 41.693 38.9885 41.6918 38.9284 41.8986C38.5634 43.173 38.208 44.415 37.8621 45.6245C37.389 47.2669 37.0696 48.8515 36.9039 50.3784C36.7598 51.7094 35.4305 52.0448 34.3174 52.1674C33.7986 52.2215 33.4997 52.6075 33.316 53.0583C32.5018 55.0421 31.8029 56.9021 31.2193 58.6382C30.5709 60.5571 28.2618 61.2568 27.3215 59.1071C26.9805 58.3304 26.5999 57.5489 26.1796 56.7626C24.9944 54.5408 22.5772 54.007 20.2573 53.7941C14.479 53.2651 8.68872 53.1088 2.88647 53.3252C-0.08911 53.4371 -0.316012 49.6426 2.39659 49.5128C7.18057 49.2819 12.0126 49.2555 16.8926 49.4334C18.9724 49.5079 20.9946 49.7039 22.9591 50.0213C25.3895 50.4109 27.3384 51.4461 28.8058 53.1269C28.8234 53.1465 28.8458 53.1614 28.8708 53.1699C28.8957 53.1785 28.9225 53.1805 28.9485 53.1758C28.9745 53.1711 28.9988 53.1599 29.0192 53.1431C29.0396 53.1263 29.0555 53.1046 29.0651 53.08C29.7928 51.1142 30.7222 49.1268 32.8621 48.5425C33.0998 48.4776 33.2415 48.3237 33.2871 48.0808C34.1085 43.8872 35.3705 39.6996 37.0732 35.518C37.5848 34.2556 38.8204 33.6316 40.0668 34.3025C41.0179 34.811 41.9941 35.3413 42.2175 36.4955C43.1925 41.473 44.0751 45.7039 44.8652 49.1881C44.9029 49.3515 44.9961 49.4965 45.1283 49.5979C45.2606 49.6994 45.4236 49.7509 45.5893 49.7436C47.1239 49.6787 48.7161 49.4695 50.1679 49.6498C51.4792 49.8157 52.7941 50.162 53.0319 51.6913C53.529 54.8486 54.0093 58.3136 54.4728 62.0864C54.4752 62.0888 54.4776 62.09 54.48 62.09L54.5844 62.0864C54.6325 62.084 54.6577 62.0588 54.6601 62.0107C54.6818 61.2917 54.7346 60.5619 54.8186 59.8213C56.9801 40.9524 59.1331 22.1496 61.2777 3.41301C61.3858 2.468 61.6992 1.62158 62.218 0.873751C63.3455 -0.745746 65.7195 0.0549834 66.0041 1.8945C68.3048 16.7429 70.5935 31.6213 72.8702 46.5299C72.9014 46.7463 72.9735 46.7607 73.0864 46.5731C73.6339 45.6522 74.2319 44.7288 74.8803 43.803C75.4819 42.9482 76.379 42.5046 77.4345 42.7643C78.6809 43.0708 79.6644 43.2548 80.2371 44.5244C81.0033 46.2317 81.7681 47.9293 82.5318 49.6174C82.5681 49.6987 82.6278 49.7674 82.7035 49.8149C82.7792 49.8624 82.8673 49.8866 82.9569 49.8843C88.2308 49.7376 93.6656 49.8915 99.2613 50.346C99.2847 50.3484 99.3083 50.3443 99.3295 50.3341C99.3507 50.3239 99.3687 50.308 99.3816 50.288C99.3946 50.268 99.4019 50.2447 99.4029 50.2206C99.4039 50.1965 99.3986 50.1725 99.3874 50.1512C97.3953 46.5046 96.066 42.1294 95.9652 37.8877C95.9339 36.6301 96.2642 35.3244 96.9558 33.9706C97.8876 32.1504 99.2206 30.9012 100.955 30.2231C104.679 28.7659 108.512 27.9471 112.316 29.6207C116 31.2438 119.333 33.3478 122.313 35.9328C122.398 36.0055 122.507 36.0421 122.618 36.0346C122.73 36.0272 122.833 35.9764 122.907 35.8931C123.76 34.9289 124.665 34.0969 125.624 33.3971C130.62 29.7614 136.081 27.0959 142.263 29.0689C144.384 29.747 145.935 30.5886 146.917 31.5937C148.457 33.1687 149.335 34.8664 149.551 36.6866C149.769 38.5045 149.745 40.1745 149.479 41.6966C149.291 42.7715 148.899 44.0724 148.301 45.5993C147.842 46.7703 147.381 48.0423 146.917 49.4154C145.676 53.0824 143.692 57.086 140.966 61.4263C138.999 64.5499 136.182 68.2626 132.515 72.5644C131.819 73.3796 130.827 74.1431 129.539 74.8548C126.643 76.4635 124.111 75.2444 121.315 74.1984C120.559 73.917 119.826 73.4926 119.118 72.9251C118.239 72.2254 117.262 71.7024 116.466 70.8944C114.676 69.0766 112.619 67.504 110.796 65.6753C107.484 62.3497 104.641 58.8342 102.266 55.1287C102.186 55.0048 102.08 54.9003 101.955 54.823C101.83 54.7456 101.69 54.6972 101.545 54.6814C95.6902 54.0418 89.6886 53.716 83.5405 53.704C81.7897 53.7004 79.6428 53.6354 78.8034 51.7599C78.2895 50.6032 77.7659 49.4538 77.2327 48.3117C77.1559 48.1457 77.0706 48.1409 76.977 48.2972C75.6549 50.4974 74.3292 52.4812 72.5208 54.3244C71.5805 55.2838 69.7217 54.9844 69.4623 53.5633C69.2894 52.6111 69.3543 51.5471 69.203 50.5696C67.4234 39.1574 65.7074 27.9736 64.0551 17.0182C64.0551 17.0115 64.0525 17.0051 64.0477 17.0004C64.043 16.9956 64.0367 16.993 64.03 16.993C64.0233 16.993 64.0169 16.9956 64.0121 17.0004C64.0074 17.0051 64.0047 17.0115 64.0047 17.0182ZM140.635 32.9643C137.811 31.976 134.803 32.719 132.083 34.0392C131.975 34.0921 131.9 34.1762 131.859 34.2917C131.726 34.6559 131.881 35.1357 131.762 35.5469C131.57 36.1889 131.205 36.754 130.667 37.2421C128.227 39.4471 125.803 41.6605 123.394 43.8824C123.367 43.9064 123.365 43.9317 123.387 43.9581C123.406 43.9846 123.43 43.9882 123.459 43.969C129.038 40.2154 134.556 36.7155 140.015 33.4693C140.207 33.3563 140.413 33.2649 140.631 33.1952C140.859 33.1206 140.861 33.0437 140.635 32.9643ZM100.31 39.399C100.399 39.8799 100.469 40.3789 100.522 40.8959C100.526 40.9299 100.539 40.9623 100.559 40.99C100.579 41.0177 100.606 41.0397 100.637 41.0539C100.668 41.068 100.702 41.0739 100.735 41.0708C100.769 41.0678 100.801 41.056 100.828 41.0365C102.068 40.1733 103.371 39.405 104.737 38.7317C106.603 37.8156 108.469 36.8381 110.335 35.7993C111.257 35.2823 112.169 34.971 113.069 34.8651C113.228 34.8459 113.237 34.7978 113.098 34.7209C111.225 33.6641 109.045 32.6577 107.003 32.9499C105.795 33.123 104.487 33.4537 103.08 33.9418C100.706 34.7678 99.8666 37.0473 100.31 39.399ZM145.322 40.9392C145.736 37.8697 145.527 35.7993 143.095 33.9454C142.843 33.753 142.806 33.7879 142.984 34.05L143.142 34.2844C143.214 34.3926 143.269 34.5069 143.308 34.6271C143.627 35.637 143.307 36.6217 142.346 37.5811C137.56 42.3783 132.824 47.2969 128.138 52.337C127.963 52.5269 127.978 52.5437 128.185 52.3874C132.789 48.9128 137.591 45.5608 142.591 42.3314C143.46 41.7712 144.297 41.3876 145.102 41.1808C145.229 41.1496 145.302 41.069 145.322 40.9392ZM115.414 36.4558C115.771 37.6821 115.195 38.638 114.391 39.5289C113.4 40.623 112.42 41.7471 111.452 42.9013C111.094 43.3293 111.148 43.3894 111.614 43.0817C113.742 41.6822 116.033 40.2863 118.487 38.8941C118.518 38.8767 118.544 38.8524 118.564 38.8232C118.584 38.7939 118.596 38.7604 118.601 38.7254C118.605 38.6904 118.602 38.6549 118.59 38.6215C118.579 38.5882 118.559 38.558 118.534 38.5334C117.631 37.6461 116.683 36.885 115.688 36.2502C115.417 36.0771 115.326 36.1456 115.414 36.4558ZM101.79 44.9572C101.766 44.9716 101.748 44.9941 101.74 45.0206C101.731 45.0471 101.732 45.0759 101.743 45.1015L102.626 47.1683C102.634 47.1862 102.647 47.2018 102.662 47.2135C102.678 47.2252 102.697 47.2327 102.716 47.2352C102.736 47.2377 102.755 47.2352 102.774 47.2279C102.792 47.2206 102.808 47.2088 102.821 47.1935L106.549 42.3819C106.564 42.3608 106.572 42.3351 106.571 42.309C106.57 42.2829 106.56 42.258 106.543 42.2383C106.525 42.2186 106.502 42.2053 106.476 42.2006C106.451 42.1959 106.424 42.2001 106.401 42.2124L101.79 44.9572ZM116.43 45.0655C112.9 47.3955 109.305 49.6282 105.76 52.0448C105.549 52.1891 105.514 52.367 105.656 52.5786L107.468 55.291C107.48 55.3111 107.498 55.3278 107.519 55.3395C107.539 55.3513 107.563 55.3578 107.587 55.3585C107.611 55.3592 107.635 55.3541 107.657 55.3436C107.679 55.3331 107.698 55.3175 107.713 55.2982C110.398 51.7875 113.352 48.3958 116.574 45.1232C116.591 45.1039 116.59 45.0871 116.571 45.0727C116.564 45.063 116.554 45.057 116.542 45.0546C116.504 45.0378 116.466 45.0414 116.43 45.0655ZM126.546 47.8247C127.091 47.2476 127.625 46.7006 128.149 46.1836C128.54 45.794 128.504 45.7484 128.041 46.0465C121.948 49.9468 116.136 54.2859 110.605 59.0638C110.584 59.0826 110.566 59.1055 110.553 59.1313C110.541 59.1571 110.533 59.1852 110.532 59.2141C110.53 59.2429 110.534 59.2719 110.544 59.2994C110.553 59.3268 110.568 59.3522 110.587 59.374L113.977 63.1865C114.249 63.4919 114.331 63.4474 114.226 63.053C114.002 62.2187 114.232 61.4119 114.914 60.6328C118.696 56.3142 122.574 52.0448 126.546 47.8247ZM124.687 70.9521C127.562 72.0486 130.238 69.2533 131.578 67.1324C133.037 64.824 134.81 62.8258 136.352 60.6256C138.578 57.4467 140.535 53.8555 142.223 49.8518C142.276 49.7292 142.257 49.7172 142.166 49.8157C136.651 55.7347 131.496 62.0936 126.279 68.3624C125.729 69.0261 125.171 69.8088 124.604 70.7105C124.532 70.8235 124.56 70.9041 124.687 70.9521ZM116.668 64.8745C116.433 64.8553 116.199 64.8264 115.966 64.788C115.726 64.7471 115.699 64.8048 115.886 64.9611C116.835 65.7642 117.742 66.5782 118.606 67.403C119.226 67.9909 120.036 68.247 120.746 68.7159C120.883 68.8073 120.98 68.776 121.038 68.6221C121.549 67.2539 122.368 66.0095 123.495 64.889C124.266 64.1195 124.934 63.3801 125.501 62.6707C127.547 60.1098 129.615 57.6295 131.704 55.2297C131.892 55.0157 131.87 54.9928 131.64 55.1612C128.066 57.7846 124.095 60.5138 119.727 63.3488C118.718 64.0053 117.533 64.9431 116.668 64.8745Z" fill="#00ADF8"/>
</svg>
