<svg width="80" height="82" viewBox="0 0 80 82" fill="none" xmlns="http://www.w3.org/2000/svg">
<path d="M23.2952 55.2024C23.2997 59.9158 23.9944 64.6714 25.3793 69.4694C26.0637 71.8501 27.3087 73.9964 29.1143 75.9082C30.2808 77.1397 32.515 78.2786 34.2205 77.7881C37.0243 76.9785 39.6234 76.1381 41.5097 74.2239C42.0668 73.6613 42.5125 72.8323 42.8468 71.7369C43.9212 68.2379 44.3101 64.4851 44.6239 60.8832C45.0309 56.1904 45.4289 52.0534 45.8177 48.472C46.3157 43.8582 47.4686 37.9545 50.9239 34.6476C53.2161 32.4522 57.1182 30.5449 60.4098 31.1143C62.229 31.4299 64.0913 32.1549 65.9969 33.2892C70.513 35.982 72.2253 41.2374 72.4573 46.2114C72.7029 51.4668 72.6142 56.6295 72.4402 62.0461C72.4376 62.1213 72.4603 62.1953 72.5048 62.2562C72.5494 62.3172 72.6131 62.3615 72.6858 62.3822C76.2787 63.3908 78.6038 65.672 79.6612 69.2258C80.3332 71.4933 79.9886 74.3886 78.7778 76.4228C77.0427 79.3386 74.5334 80.968 71.2498 81.3111C64.1687 82.052 58.9192 74.6424 61.5763 68.1281C62.7588 65.2191 64.9395 63.3027 68.1185 62.3788C68.1842 62.3598 68.2424 62.3205 68.2852 62.2665C68.3279 62.2124 68.3531 62.1462 68.3573 62.0769C68.6143 57.5969 68.6745 53.0333 68.5381 48.3863C68.4767 46.2251 68.2629 44.3373 67.8968 42.7227C67.06 39.0362 64.8304 36.6258 61.208 35.4915C60.0346 35.1244 59.0556 34.9049 57.8175 35.2685C53.2638 36.5995 51.5311 39.9647 50.5999 44.2492C49.5595 49.0552 49.2594 54.2316 48.8364 59.2194C48.5385 62.7458 48.1417 66.047 47.646 69.1229C47.1275 72.3509 46.0497 76.0351 43.222 78.1208C40.5478 80.0933 37.5359 81.1567 34.4354 81.8771C31.7885 82.4911 28.1319 80.6902 26.5151 79.0127C23.5783 75.9734 22.0536 72.79 21.0679 68.3888C20.0514 63.8607 19.575 59.4767 19.6387 55.2367C19.6409 55.0881 19.5682 55.0046 19.4204 54.9863C15.9821 54.5884 12.4143 53.6245 9.95837 51.1203C6.46555 47.563 5.12844 43.4774 4.16314 38.716C3.31722 34.547 2.49861 30.4923 1.70727 26.5519C0.530491 20.6825 -0.178993 17.554 0.0393082 12.8064C0.102979 11.3862 0.29171 10.2416 0.605517 9.37257C1.50942 6.85467 3.16034 5.08459 5.18303 3.35568C7.56047 1.32146 12.1243 -0.976893 14.8565 1.27001C17.1964 3.19445 16.8928 6.39499 14.4267 7.97983C11.7525 9.69502 9.5354 8.18565 6.89873 7.4344C6.82846 7.41403 6.75452 7.40994 6.68245 7.42241C6.61038 7.43489 6.54206 7.46362 6.48261 7.50644C2.73397 10.1959 3.7402 16.9983 4.5827 20.8746C5.90388 26.9487 7.15228 32.9839 8.32792 38.9802C8.40979 39.3964 8.66561 40.3672 9.09539 41.8926C10.0095 45.1549 12.3597 48.9248 15.7365 50.0466C17.4261 50.6069 19.0849 50.9419 20.7131 51.0517C22.729 51.1855 24.5231 50.52 26.5117 50.1289C27.9409 49.8476 29.145 49.0518 30.349 48.2388C33.1324 46.3692 34.507 42.5409 35.0596 39.361C35.9703 34.1399 37.113 28.6582 37.802 23.3205C38.2613 19.7666 38.6104 16.6553 38.8491 13.9864C39.0447 11.7933 38.7002 9.78307 37.8156 7.95582C37.7555 7.83132 37.6556 7.73062 37.532 7.66971C37.4084 7.60881 37.2681 7.59118 37.1334 7.61964C36.2648 7.79802 35.4484 8.12048 34.6844 8.58701C32.5252 9.90084 29.8749 10.0449 28.2001 7.91808C26.1161 5.2664 27.4361 1.29745 30.6901 0.319792C34.6196 -0.860259 37.4677 1.41065 39.9543 4.1035C42.7615 7.14968 43.1947 11.5646 42.7717 15.4958C42.2533 20.3258 41.6734 25.4027 40.7695 30.3288C40.1646 33.6379 39.6098 36.763 39.105 39.704C38.607 42.6221 37.6553 45.3035 36.25 47.7482C34.8344 50.2147 32.6958 51.7069 30.1478 53.0928C29.2905 53.557 28.2138 53.9275 26.9176 54.2042C25.7352 54.4558 24.5868 54.713 23.4726 54.976C23.3543 55.0058 23.2952 55.0812 23.2952 55.2024ZM72.1674 67.0407C72.158 67.2492 72.2051 67.4563 72.3036 67.6399C72.4021 67.8236 72.5484 67.9769 72.7267 68.0835C74.0058 68.8485 74.7017 70.0388 74.8245 71.5722C74.9882 73.6304 73.5385 75.0918 71.7034 75.723C69.5034 76.4777 67.5557 75.1947 66.8087 73.1159C66.1572 71.2944 66.9281 69.7884 68.2891 68.5432C68.3851 68.4552 68.4428 68.3319 68.4494 68.2002L68.5244 66.8006C68.526 66.7685 68.5193 66.7365 68.5051 66.7078C68.491 66.679 68.4697 66.6544 68.4434 66.6362C68.4171 66.618 68.3866 66.6068 68.3549 66.6038C68.3231 66.6007 68.291 66.6059 68.2618 66.6187C65.4068 67.8434 64.1448 71.1297 65.3932 74.0181C66.6109 76.8241 69.807 78.0008 72.6142 76.8413C74.8177 75.9288 76.2093 73.5584 75.9296 71.1537C75.6863 69.0749 74.5584 67.5381 72.546 66.5433C72.5039 66.5226 72.4571 66.5135 72.4103 66.5168C72.3636 66.5202 72.3186 66.5359 72.2798 66.5623C72.2411 66.5888 72.2099 66.625 72.1896 66.6675C72.1692 66.7099 72.1604 66.757 72.1639 66.804C72.1708 66.884 72.1719 66.9629 72.1674 67.0407Z" fill="#00ADF8"/>
</svg>
