<svg width="52" height="84" viewBox="0 0 52 84" fill="none" xmlns="http://www.w3.org/2000/svg">
<path d="M24.9952 67.8507C25.295 72.4621 25.4874 76.8016 25.5725 80.8693C25.5725 80.8693 25.5725 80.8693 25.5725 80.8694L25.8225 80.8642M24.9952 67.8507L30.2547 80.7282M24.9952 67.8507C22.3675 67.8414 19.6538 67.8403 16.8541 67.8473H16.8535C16.0791 67.8473 15.3956 67.5079 14.9932 66.9684C14.5861 66.4227 14.4807 65.6887 14.8397 64.9511C15.2708 64.0622 16.1048 63.6255 17.2565 63.5981L17.2567 63.5981C19.7119 63.5417 22.2807 63.5017 24.9632 63.4782L24.9654 63.4782C24.9979 63.4782 25.0291 63.4654 25.0522 63.4425C25.0754 63.4196 25.0885 63.3885 25.0888 63.3559C25.0888 63.3559 25.0888 63.3559 25.0888 63.3558L25.1983 50.7807C16.3645 50.3314 8.41277 45.7943 4.06431 38.0962C-5.64 20.9299 7.15919 0.247041 26.903 0.759329C27.7368 0.780819 28.5761 0.87035 29.4208 1.02771C29.7811 1.09449 30.1422 1.14433 30.5107 1.19518C30.6409 1.21315 30.7721 1.23125 30.9044 1.25026C31.4065 1.32241 31.9186 1.40694 32.4283 1.5468C42.7603 4.34642 50.1732 12.9405 51.1433 23.4642C52.3684 36.7345 42.9128 48.6717 29.5623 50.5152L29.5622 50.5152C29.5504 50.5168 29.5414 50.5189 29.535 50.5207C29.5309 50.5219 29.5278 50.523 29.5255 50.524C29.5241 50.5299 29.5221 50.5411 29.5221 50.5594C29.5221 50.5596 29.5221 50.5598 29.5221 50.56L29.6032 63.3445M24.9952 67.8507L29.6032 63.3445M25.8225 80.8642C25.8794 83.6479 30.0331 83.8206 30.0047 80.7302M25.8225 80.8642C25.7371 76.7837 25.5439 72.4307 25.2428 67.8052L25.8225 80.8642ZM30.0047 80.7302L30.2547 80.7282M30.0047 80.7302C29.9715 76.7108 29.7415 72.4906 29.3148 68.0695L29.5637 68.0459C29.5636 68.0458 29.5636 68.0457 29.5636 68.0456M30.0047 80.7302L30.2547 80.7279C30.2547 80.728 30.2547 80.7281 30.2547 80.7282M30.2547 80.7282C30.2214 76.7008 29.991 72.4732 29.5636 68.0456M29.5636 68.0456C29.5507 67.9084 29.5803 67.8545 29.5982 67.834C29.6164 67.8131 29.6668 67.776 29.8065 67.7695L29.8076 67.7694C32.6119 67.6263 35.2463 67.5395 37.7107 67.509C38.654 67.4969 39.3651 67.2117 39.8357 66.7634C40.3065 66.315 40.5176 65.7208 40.4881 65.134C40.4286 63.9513 39.4047 62.8416 37.6848 62.9005L37.6847 62.9005C35.0047 62.9934 32.3109 63.1414 29.6032 63.3445M29.5636 68.0456L29.6032 63.3445M29.5071 63.4509L29.5071 63.451L29.5071 63.4509ZM29.5071 63.4509L29.5076 63.4492L29.5071 63.4509ZM25.1991 50.6909C25.1991 50.6899 25.1991 50.6889 25.1991 50.6879L25.1991 50.6909ZM40.5677 11.3433C44.4241 15.1644 46.5902 20.3465 46.5902 25.7494C46.5902 31.1523 44.4241 36.3344 40.5677 40.1555C36.7111 43.9767 31.4801 46.1238 26.0252 46.1238C20.5703 46.1238 15.3392 43.9767 11.4827 40.1555C7.62628 36.3344 5.46019 31.1523 5.46019 25.7494C5.46019 20.3465 7.62628 15.1644 11.4827 11.3433C15.3392 7.52211 20.5703 5.37497 26.0252 5.37497C31.4801 5.37497 36.7111 7.52211 40.5677 11.3433Z" fill="#00ADF8" stroke="#00ADF8" stroke-width="0.5"/>
</svg>
